<svg width="134" height="30" viewBox="0 0 134 30" fill="none" xmlns="http://www.w3.org/2000/svg">
<path d="M29.484 28.8179L21.705 19.3439C22.8 18.6119 23.7 17.7149 24.408 16.6529C25.479 15.0359 26.013 13.1129 26.013 10.8869C26.013 8.66088 25.488 6.72888 24.429 5.09988C23.373 3.47088 21.864 2.21388 19.908 1.32888C17.949 0.443878 15.642 -0.00012207 12.984 -0.00012207H0V29.9999H6.942V21.6419H14.13L14.178 21.7139L20.985 29.9999H30.456L29.484 28.8179ZM17.679 14.4419C17.577 14.5499 17.469 14.6489 17.355 14.7449C16.95 15.0839 16.482 15.3599 15.942 15.5729C15.024 15.9359 13.911 16.1159 12.6 16.1159H6.942V5.65788H12.6C14.688 5.65788 16.272 6.11088 17.358 7.01088C18.447 7.90788 18.987 9.20388 18.987 10.8899C18.987 12.3719 18.552 13.5599 17.682 14.4449L17.679 14.4419Z" fill="white"/>
<path d="M33.1738 -0.00012207V29.9999H40.1158V-0.00012207H33.1738Z" fill="white"/>
<path d="M70.3431 -0.00012207V29.9999H64.6431L49.6881 11.7869V29.9999H42.8301V-0.00012207H48.5721L63.4881 18.2159V-0.00012207H70.3431Z" fill="white"/>
<path d="M106.688 30.0001H97.7005L89.8765 20.4721L82.0495 30.0001H73.0645L85.3824 15.0001L89.8765 9.53113L94.3705 15.0001L101.309 23.4511L106.688 30.0001Z" fill="#FFD700"/>
<path d="M106.689 -0.00012207L95.7538 13.3169L91.2598 7.84788L97.7038 -0.00012207H106.689Z" fill="white"/>
<path d="M88.4935 7.84788L83.9995 13.3139L73.0645 -0.00012207H82.0464L82.5984 0.671878L88.4935 7.84788Z" fill="white"/>
<path d="M118.629 -0.00012207C110.343 -0.00012207 103.629 6.71688 103.629 14.9999C103.629 23.2829 110.343 29.9999 118.629 29.9999C126.915 29.9999 133.629 23.2859 133.629 14.9999C133.629 6.71388 126.912 -0.00012207 118.629 -0.00012207ZM118.629 23.1119C114.15 23.1119 110.517 19.4789 110.517 14.9999C110.517 10.5209 114.15 6.89088 118.629 6.89088C123.108 6.89088 126.741 10.5209 126.741 14.9999C126.741 19.4789 123.108 23.1119 118.629 23.1119Z" fill="white"/>
</svg>
